<?xml version="1.0" encoding="UTF-8" standalone="no"?>
<!-- Created with Inkscape (http://www.inkscape.org/) -->

<svg
   width="76.773018mm"
   height="97.155106mm"
   viewBox="0 0 76.773018 97.155106"
   version="1.1"
   id="svg1"
   xmlns:inkscape="http://www.inkscape.org/namespaces/inkscape"
   xmlns:sodipodi="http://sodipodi.sourceforge.net/DTD/sodipodi-0.dtd"
   xmlns="http://www.w3.org/2000/svg"
   xmlns:svg="http://www.w3.org/2000/svg">
  <sodipodi:namedview
     id="namedview1"
     pagecolor="#ffffff"
     bordercolor="#000000"
     borderopacity="0.25"
     inkscape:showpageshadow="2"
     inkscape:pageopacity="0.0"
     inkscape:pagecheckerboard="0"
     inkscape:deskcolor="#d1d1d1"
     inkscape:document-units="mm" />
  <defs
     id="defs1">
    <clipPath
       clipPathUnits="userSpaceOnUse"
       id="clipPath2">
      <path
         d="M 0,612 H 792 V 0 H 0 Z"
         transform="translate(-282.1318,-271.43361)"
         id="path2" />
    </clipPath>
    <clipPath
       clipPathUnits="userSpaceOnUse"
       id="clipPath4">
      <path
         d="M 0,612 H 792 V 0 H 0 Z"
         transform="translate(-307.17681,-258.28521)"
         id="path4" />
    </clipPath>
    <clipPath
       clipPathUnits="userSpaceOnUse"
       id="clipPath6">
      <path
         d="M 0,612 H 792 V 0 H 0 Z"
         transform="translate(-327.46291,-281.6152)"
         id="path6" />
    </clipPath>
    <clipPath
       clipPathUnits="userSpaceOnUse"
       id="clipPath8">
      <path
         d="M 0,612 H 792 V 0 H 0 Z"
         transform="translate(-366.78121,-258.28521)"
         id="path8" />
    </clipPath>
    <clipPath
       clipPathUnits="userSpaceOnUse"
       id="clipPath10">
      <path
         d="M 0,612 H 792 V 0 H 0 Z"
         transform="translate(-406.20411,-281.6152)"
         id="path10" />
    </clipPath>
    <clipPath
       clipPathUnits="userSpaceOnUse"
       id="clipPath12">
      <path
         d="M 0,612 H 792 V 0 H 0 Z"
         transform="translate(-430.25001,-258.28521)"
         id="path12" />
    </clipPath>
    <clipPath
       clipPathUnits="userSpaceOnUse"
       id="clipPath14">
      <path
         d="M 0,612 H 792 V 0 H 0 Z"
         transform="translate(-450.53611,-264.04101)"
         id="path14" />
    </clipPath>
    <clipPath
       clipPathUnits="userSpaceOnUse"
       id="clipPath16">
      <path
         d="M 0,612 H 792 V 0 H 0 Z"
         transform="translate(-288.99121,-219.73141)"
         id="path16" />
    </clipPath>
    <clipPath
       clipPathUnits="userSpaceOnUse"
       id="clipPath18">
      <path
         d="M 0,612 H 792 V 0 H 0 Z"
         transform="translate(-316.10741,-230.45121)"
         id="path18" />
    </clipPath>
    <clipPath
       clipPathUnits="userSpaceOnUse"
       id="clipPath20">
      <path
         d="M 0,612 H 792 V 0 H 0 Z"
         transform="translate(-323.61871,-234.81151)"
         id="path20" />
    </clipPath>
    <clipPath
       clipPathUnits="userSpaceOnUse"
       id="clipPath22">
      <path
         d="M 0,612 H 792 V 0 H 0 Z"
         transform="translate(-359.25591,-230.45121)"
         id="path22" />
    </clipPath>
    <clipPath
       clipPathUnits="userSpaceOnUse"
       id="clipPath24">
      <path
         d="M 0,612 H 792 V 0 H 0 Z"
         transform="translate(-374.01761,-235.0654)"
         id="path24" />
    </clipPath>
    <clipPath
       clipPathUnits="userSpaceOnUse"
       id="clipPath26">
      <path
         d="M 0,612 H 792 V 0 H 0 Z"
         transform="translate(-392.48541,-224.78221)"
         id="path26" />
    </clipPath>
    <clipPath
       clipPathUnits="userSpaceOnUse"
       id="clipPath28">
      <path
         d="M 0,612 H 792 V 0 H 0 Z"
         transform="translate(-416.56741,-234.81151)"
         id="path28" />
    </clipPath>
    <clipPath
       clipPathUnits="userSpaceOnUse"
       id="clipPath30">
      <path
         d="M 0,612 H 792 V 0 H 0 Z"
         transform="translate(-452.20411,-230.45121)"
         id="path30" />
    </clipPath>
    <clipPath
       clipPathUnits="userSpaceOnUse"
       id="clipPath33">
      <path
         d="M 0,612 H 792 V 0 H 0 Z"
         transform="matrix(1.3333333,0,0,-1.3333333,0,816)"
         id="path33" />
    </clipPath>
    <clipPath
       clipPathUnits="userSpaceOnUse"
       id="clipPath31">
      <path
         d="m 277.298,377.665 h 93.104 v -79.97 h -93.104 z"
         transform="translate(-277.29831,-377.66501)"
         id="path31" />
    </clipPath>
    <clipPath
       clipPathUnits="userSpaceOnUse"
       id="clipPath35">
      <path
         d="M 0,612 H 792 V 0 H 0 Z"
         transform="translate(-450.46001,-457.76071)"
         id="path35" />
    </clipPath>
    <clipPath
       clipPathUnits="userSpaceOnUse"
       id="clipPath38">
      <path
         d="M 0,612 H 792 V 0 H 0 Z"
         transform="matrix(1.3333333,0,0,-1.3333333,0,816)"
         id="path38" />
    </clipPath>
    <clipPath
       clipPathUnits="userSpaceOnUse"
       id="clipPath36">
      <path
         d="m 277.298,447.306 h 93.104 v -83.873 h -93.104 z"
         transform="translate(-277.29831,-447.30621)"
         id="path36" />
    </clipPath>
    <clipPath
       clipPathUnits="userSpaceOnUse"
       id="clipPath40">
      <path
         d="M 0,612 H 792 V 0 H 0 Z"
         transform="translate(-450.46001,-390.45611)"
         id="path40" />
    </clipPath>
    <clipPath
       clipPathUnits="userSpaceOnUse"
       id="clipPath42">
      <path
         d="M 0,612 H 792 V 0 H 0 Z"
         transform="translate(-370.40231,-487.51951)"
         id="path42" />
    </clipPath>
    <clipPath
       clipPathUnits="userSpaceOnUse"
       id="clipPath44">
      <path
         d="M 0,612 H 792 V 0 H 0 Z"
         transform="translate(-370.03121,-363.43261)"
         id="path44" />
    </clipPath>
    <clipPath
       clipPathUnits="userSpaceOnUse"
       id="clipPath46">
      <path
         d="M 0,612 H 792 V 0 H 0 Z"
         transform="translate(-450.46001,-390.45611)"
         id="path46" />
    </clipPath>
    <clipPath
       clipPathUnits="userSpaceOnUse"
       id="clipPath48">
      <path
         d="M 0,612 H 792 V 0 H 0 Z"
         transform="translate(-277.29831,-447.30621)"
         id="path48" />
    </clipPath>
    <clipPath
       clipPathUnits="userSpaceOnUse"
       id="clipPath50">
      <path
         d="M 0,612 H 792 V 0 H 0 Z"
         transform="translate(-277.29831,-377.66501)"
         id="path50" />
    </clipPath>
  </defs>
  <g
     inkscape:label="Capa 1"
     inkscape:groupmode="layer"
     id="layer1"
     transform="translate(-2.7912148,-3.700605)">
    <path
       id="path1"
       d="m 0,0 h -6.472 c -0.035,0.324 -0.051,0.563 -0.051,0.717 -0.154,1.961 -0.588,3.193 -1.305,3.696 -0.716,0.503 -2.404,0.755 -5.066,0.755 -3.137,0 -5.188,-0.29 -6.152,-0.87 -0.964,-0.58 -1.445,-1.799 -1.445,-3.658 0,-2.201 0.392,-3.522 1.177,-3.965 0.784,-0.444 3.376,-0.785 7.777,-1.024 5.201,-0.29 8.565,-1.032 10.092,-2.225 1.526,-1.195 2.29,-3.676 2.29,-7.445 0,-4.638 -0.896,-7.635 -2.687,-8.992 -1.791,-1.355 -5.739,-2.033 -11.845,-2.033 -5.491,0 -9.136,0.665 -10.935,1.995 -1.8,1.33 -2.699,4.025 -2.699,8.084 l -0.026,1.279 h 6.447 l 0.025,-0.742 c 0,-2.439 0.427,-3.931 1.279,-4.476 0.853,-0.546 3.181,-0.82 6.985,-0.82 2.966,0 4.86,0.316 5.678,0.948 0.819,0.63 1.228,2.089 1.228,4.374 0,1.688 -0.311,2.809 -0.934,3.364 -0.622,0.554 -1.965,0.891 -4.029,1.011 l -3.658,0.229 c -5.526,0.324 -9.056,1.092 -10.591,2.303 -1.534,1.211 -2.302,3.811 -2.302,7.803 0,4.075 0.925,6.792 2.776,8.147 1.85,1.356 5.547,2.034 11.089,2.034 5.253,0 8.792,-0.623 10.617,-1.868 C -0.912,7.376 0,4.946 0,1.331 Z"
       style="fill:#6d6f71;fill-opacity:1;fill-rule:nonzero;stroke:none"
       transform="matrix(0.35277776,0,0,-0.35277776,12.438628,79.930906)"
       clip-path="url(#clipPath2)" />
    <path
       id="path3"
       d="M 0,0 -6.037,18.188 -11.973,0 Z m 1.534,-4.887 h -15.067 l -2.174,-6.702 h -7.01 l 11.614,34.919 h 9.952 L 10.642,-11.589 H 3.761 Z"
       style="fill:#6d6f71;fill-opacity:1;fill-rule:nonzero;stroke:none"
       transform="matrix(0.35277776,0,0,-0.35277776,21.273949,84.56937)"
       clip-path="url(#clipPath4)" />
    <path
       id="path5"
       d="m 0,0 v -28.984 h 16.372 v -5.935 H -6.626 V 0 Z"
       style="fill:#6d6f71;fill-opacity:1;fill-rule:nonzero;stroke:none"
       transform="matrix(0.35277776,0,0,-0.35277776,28.430435,76.339066)"
       clip-path="url(#clipPath6)" />
    <path
       id="path7"
       d="M 0,0 -6.037,18.188 -11.972,0 Z m 1.535,-4.887 h -15.067 l -2.175,-6.702 h -7.009 L -11.103,23.33 H -1.15 L 10.643,-11.589 H 3.761 Z"
       style="fill:#6d6f71;fill-opacity:1;fill-rule:nonzero;stroke:none"
       transform="matrix(0.35277776,0,0,-0.35277776,42.301055,84.56937)"
       clip-path="url(#clipPath8)" />
    <path
       id="path9"
       d="m 0,0 v -5.551 l -19.289,-23.587 v -0.204 H 0.229 v -5.577 H -27.68 v 5.653 l 19.135,23.485 v 0.205 H -26.836 V 0 Z"
       style="fill:#6d6f71;fill-opacity:1;fill-rule:nonzero;stroke:none"
       transform="matrix(0.35277776,0,0,-0.35277776,56.208575,76.339066)"
       clip-path="url(#clipPath10)" />
    <path
       id="path11"
       d="M 0,0 -6.037,18.188 -11.972,0 Z m 1.535,-4.887 h -15.067 l -2.175,-6.702 h -7.009 L -11.103,23.33 H -1.15 L 10.643,-11.589 H 3.761 Z"
       style="fill:#6d6f71;fill-opacity:1;fill-rule:nonzero;stroke:none"
       transform="matrix(0.35277776,0,0,-0.35277776,64.691435,84.56937)"
       clip-path="url(#clipPath12)" />
    <path
       id="path13"
       d="m 0,0 h 9.517 c 2.267,0 3.773,0.404 4.515,1.215 0.741,0.809 1.113,2.434 1.113,4.873 0,2.49 -0.32,4.098 -0.959,4.822 -0.64,0.725 -2.043,1.088 -4.208,1.088 H 0 Z m -6.626,-17.345 v 34.919 h 17.217 c 4.281,0 7.231,-0.741 8.851,-2.225 1.62,-1.484 2.431,-4.17 2.431,-8.058 0,-3.53 -0.405,-5.944 -1.216,-7.24 -0.809,-1.296 -2.469,-2.192 -4.975,-2.686 v -0.23 c 3.871,-0.239 5.807,-2.499 5.807,-6.78 v -7.7 h -6.626 v 6.37 c 0,3.598 -1.774,5.398 -5.321,5.398 H 0 v -11.768 z"
       style="fill:#6d6f71;fill-opacity:1;fill-rule:nonzero;stroke:none"
       transform="matrix(0.35277776,0,0,-0.35277776,71.847925,82.538851)"
       clip-path="url(#clipPath14)" />
    <path
       id="path15"
       d="M 0,0 -5.505,15.152 -10.938,0 Z m 0.817,-2.107 h -12.554 l -1.908,-5.251 h -2.961 l 9.084,24.8 h 3.924 l 9.266,-24.8 H 2.743 Z"
       style="fill:#231f20;fill-opacity:1;fill-rule:nonzero;stroke:none"
       transform="matrix(0.35277776,0,0,-0.35277776,14.858473,98.170294)"
       clip-path="url(#clipPath16)" />
    <path
       id="path17"
       d="m 0,0 h -2.78 c 0,1.998 -0.333,3.267 -0.999,3.807 -0.667,0.538 -2.235,0.807 -4.706,0.807 -2.932,0 -4.821,-0.257 -5.669,-0.771 -0.847,-0.516 -1.271,-1.663 -1.271,-3.444 0,-1.998 0.332,-3.215 0.999,-3.651 0.666,-0.436 2.646,-0.733 5.941,-0.891 3.863,-0.169 6.319,-0.66 7.367,-1.471 1.048,-0.812 1.572,-2.629 1.572,-5.451 0,-3.052 -0.603,-5.027 -1.808,-5.923 -1.205,-0.897 -3.867,-1.344 -7.985,-1.344 -3.573,0 -5.95,0.45 -7.131,1.353 -1.181,0.902 -1.772,2.722 -1.772,5.459 l -0.018,1.109 h 2.78 v -0.617 c 0,-2.217 0.339,-3.595 1.018,-4.134 0.678,-0.539 2.416,-0.809 5.214,-0.809 3.209,0 5.184,0.27 5.923,0.809 0.739,0.539 1.108,1.977 1.108,4.315 0,1.514 -0.251,2.523 -0.754,3.025 -0.503,0.503 -1.553,0.802 -3.152,0.899 l -2.907,0.146 -2.762,0.145 c -4.203,0.291 -6.304,2.471 -6.304,6.541 0,2.822 0.611,4.705 1.835,5.651 1.223,0.944 3.663,1.417 7.322,1.417 3.706,0 6.123,-0.44 7.249,-1.318 C -0.563,4.781 0,2.895 0,0"
       style="fill:#231f20;fill-opacity:1;fill-rule:nonzero;stroke:none"
       transform="matrix(0.35277776,0,0,-0.35277776,24.424465,94.388586)"
       clip-path="url(#clipPath18)" />
    <path
       id="path19"
       d="m 0,0 v -8.448 h 12.591 v -2.363 H 0 v -9.265 h 13.136 v -2.362 H -2.798 v 24.8 H 13.136 V 0 Z"
       style="fill:#231f20;fill-opacity:1;fill-rule:nonzero;stroke:none"
       transform="matrix(0.35277776,0,0,-0.35277776,27.074285,92.85037)"
       clip-path="url(#clipPath20)" />
    <path
       id="path21"
       d="m 0,0 h -2.78 c 0,1.998 -0.333,3.267 -0.999,3.807 -0.666,0.538 -2.235,0.807 -4.706,0.807 -2.931,0 -4.821,-0.257 -5.668,-0.771 -0.849,-0.516 -1.273,-1.663 -1.273,-3.444 0,-1.998 0.333,-3.215 1,-3.651 0.665,-0.436 2.646,-0.733 5.941,-0.891 3.864,-0.169 6.32,-0.66 7.368,-1.471 1.047,-0.812 1.571,-2.629 1.571,-5.451 0,-3.052 -0.602,-5.027 -1.808,-5.923 -1.206,-0.897 -3.867,-1.344 -7.985,-1.344 -3.573,0 -5.95,0.45 -7.132,1.353 -1.18,0.902 -1.77,2.722 -1.77,5.459 l -0.019,1.109 h 2.78 v -0.617 c 0,-2.217 0.339,-3.595 1.017,-4.134 0.679,-0.539 2.417,-0.809 5.215,-0.809 3.21,0 5.184,0.27 5.923,0.809 0.738,0.539 1.108,1.977 1.108,4.315 0,1.514 -0.252,2.523 -0.754,3.025 -0.503,0.503 -1.553,0.802 -3.152,0.899 l -2.907,0.146 -2.762,0.145 c -4.203,0.291 -6.305,2.471 -6.305,6.541 0,2.822 0.613,4.705 1.835,5.651 1.224,0.944 3.664,1.417 7.323,1.417 3.707,0 6.123,-0.44 7.25,-1.318 C -0.563,4.781 0,2.895 0,0"
       style="fill:#231f20;fill-opacity:1;fill-rule:nonzero;stroke:none"
       transform="matrix(0.35277776,0,0,-0.35277776,39.646295,94.388586)"
       clip-path="url(#clipPath22)" />
    <path
       id="path23"
       d="m 0,0 c -3.925,0 -6.22,-0.436 -6.886,-1.308 -0.667,-0.872 -1,-3.864 -1,-8.975 0,-5.123 0.333,-8.121 1,-8.993 0.666,-0.872 2.961,-1.309 6.886,-1.309 3.937,0 6.237,0.437 6.904,1.309 0.666,0.872 0.999,3.87 0.999,8.993 v 1.617 l -0.018,2.344 c 0,2.737 -0.46,4.475 -1.381,5.215 C 5.584,-0.369 3.416,0 0,0 m 0.018,2.362 c 4.687,0 7.619,-0.684 8.794,-2.052 1.174,-1.37 1.762,-4.791 1.762,-10.266 0,-5.898 -0.563,-9.539 -1.689,-10.92 -1.127,-1.38 -4.082,-2.07 -8.867,-2.07 -4.76,0 -7.712,0.683 -8.857,2.052 -1.145,1.369 -1.718,4.906 -1.718,10.611 v 1.744 l 0.037,2.344 c 0,3.295 0.742,5.545 2.226,6.75 1.483,1.205 4.254,1.807 8.312,1.807"
       style="fill:#231f20;fill-opacity:1;fill-rule:nonzero;stroke:none"
       transform="matrix(0.35277776,0,0,-0.35277776,44.853895,92.760801)"
       clip-path="url(#clipPath24)" />
    <path
       id="path25"
       d="m 0,0 h 8.085 c 2.132,0 3.585,0.324 4.36,0.972 0.776,0.648 1.163,1.869 1.163,3.661 0,2.241 -0.288,3.7 -0.863,4.379 -0.575,0.678 -1.807,1.017 -3.697,1.017 H 0 Z m -2.798,-12.409 v 24.801 h 11.81 c 2.664,0 4.542,-0.528 5.632,-1.581 1.09,-1.054 1.635,-2.883 1.635,-5.488 0,-2.289 -0.297,-3.885 -0.89,-4.787 -0.594,-0.902 -1.726,-1.487 -3.398,-1.753 v -0.054 c 2.628,-0.195 3.943,-1.793 3.943,-4.797 v -6.341 h -2.798 v 5.705 c 0,2.894 -1.254,4.342 -3.761,4.342 H 8.448 0 v -10.047 z"
       style="fill:#231f20;fill-opacity:1;fill-rule:nonzero;stroke:none"
       transform="matrix(0.35277776,0,0,-0.35277776,51.368925,96.388484)"
       clip-path="url(#clipPath26)" />
    <path
       id="path27"
       d="m 0,0 v -8.448 h 12.591 v -2.363 H 0 v -9.265 h 13.136 v -2.362 H -2.799 v 24.8 H 13.136 V 0 Z"
       style="fill:#231f20;fill-opacity:1;fill-rule:nonzero;stroke:none"
       transform="matrix(0.35277776,0,0,-0.35277776,59.864525,92.85037)"
       clip-path="url(#clipPath28)" />
    <path
       id="path29"
       d="m 0,0 h -2.78 c 0,1.998 -0.333,3.267 -0.999,3.807 -0.666,0.538 -2.235,0.807 -4.706,0.807 -2.931,0 -4.821,-0.257 -5.668,-0.771 -0.849,-0.516 -1.273,-1.663 -1.273,-3.444 0,-1.998 0.333,-3.215 1,-3.651 0.665,-0.436 2.646,-0.733 5.941,-0.891 3.864,-0.169 6.32,-0.66 7.368,-1.471 1.047,-0.812 1.571,-2.629 1.571,-5.451 0,-3.052 -0.602,-5.027 -1.808,-5.923 -1.206,-0.897 -3.867,-1.344 -7.985,-1.344 -3.573,0 -5.95,0.45 -7.132,1.353 -1.18,0.902 -1.77,2.722 -1.77,5.459 l -0.019,1.109 h 2.78 v -0.617 c 0,-2.217 0.339,-3.595 1.017,-4.134 0.679,-0.539 2.417,-0.809 5.215,-0.809 3.21,0 5.184,0.27 5.923,0.809 0.738,0.539 1.108,1.977 1.108,4.315 0,1.514 -0.252,2.523 -0.754,3.025 -0.503,0.503 -1.553,0.802 -3.152,0.899 l -2.907,0.146 -2.762,0.145 c -4.203,0.291 -6.305,2.471 -6.305,6.541 0,2.822 0.613,4.705 1.835,5.651 1.224,0.944 3.664,1.417 7.323,1.417 3.707,0 6.123,-0.44 7.25,-1.318 C -0.563,4.781 0,2.895 0,0"
       style="fill:#231f20;fill-opacity:1;fill-rule:nonzero;stroke:none"
       transform="matrix(0.35277776,0,0,-0.35277776,72.436355,94.388586)"
       clip-path="url(#clipPath30)" />
    <g
       id="g32"
       clip-path="url(#clipPath33)"
       transform="matrix(0.26458333,0,0,0.26458333,-87.091199,-40.213349)">
      <path
         d="M 0,0 93.104,-27.123 V -79.97 L 0,-53.455 Z"
         style="fill:#b9d9ec;fill-opacity:1;fill-rule:nonzero;stroke:none"
         transform="matrix(1.3333333,0,0,-1.3333333,369.73107,312.44667)"
         clip-path="url(#clipPath31)"
         id="path32" />
    </g>
    <path
       id="path34"
       d="m 0,0 v -50.554 l -61.464,20.21 z"
       style="fill:#00aeef;fill-opacity:1;fill-rule:nonzero;stroke:none"
       transform="matrix(0.35277776,0,0,-0.35277776,71.821075,14.198848)"
       clip-path="url(#clipPath35)" />
    <g
       id="g37"
       clip-path="url(#clipPath38)"
       transform="matrix(0.26458333,0,0,0.26458333,-87.091199,-40.213349)">
      <path
         d="M 0,0 93.104,-30.632 92.733,-83.874 0,-53.454 Z"
         style="fill:#b9d9ec;fill-opacity:1;fill-rule:nonzero;stroke:none"
         transform="matrix(1.3333333,0,0,-1.3333333,369.73107,219.59173)"
         clip-path="url(#clipPath36)"
         id="path37" />
    </g>
    <path
       id="path39"
       d="m 0,0 v -52.777 l -80.058,-39.984 -0.223,53.128 z"
       style="fill:#00aeef;fill-opacity:1;fill-rule:nonzero;stroke:none"
       transform="matrix(0.35277776,0,0,-0.35277776,71.821075,37.942416)"
       clip-path="url(#clipPath40)" />
    <path
       id="path41"
       d="M 0,0 -93.104,-40.213 V -93.667 L 0,-53.873 Z"
       style="fill:#00aeef;fill-opacity:1;fill-rule:nonzero;stroke:none"
       transform="matrix(0.35277776,0,0,-0.35277776,43.578495,3.7006051)"
       clip-path="url(#clipPath42)" />
    <path
       id="path43"
       d="M 0,0 0.371,53.242 80.429,27.023 15.82,-4.871 Z"
       style="fill:#00aeef;fill-opacity:1;fill-rule:nonzero;stroke:none"
       transform="matrix(0.35277776,0,0,-0.35277776,43.447585,47.475705)"
       clip-path="url(#clipPath44)" />
    <path
       id="path45"
       d="m 0,0 v -52.777 l -64.608,20.882 z"
       style="fill:#0071ce;fill-opacity:1;fill-rule:nonzero;stroke:none"
       transform="matrix(0.35277776,0,0,-0.35277776,71.821075,37.942416)"
       clip-path="url(#clipPath46)" />
    <path
       id="path47"
       d="M 0,0 V -53.454 L 70.667,-23.25 Z"
       style="fill:#0071ce;fill-opacity:1;fill-rule:nonzero;stroke:none"
       transform="matrix(0.35277776,0,0,-0.35277776,10.733479,17.886962)"
       clip-path="url(#clipPath48)" />
    <path
       id="path49"
       d="m 0,0 v -53.455 l 74.884,31.64 z"
       style="fill:#0071ce;fill-opacity:1;fill-rule:nonzero;stroke:none"
       transform="matrix(0.35277776,0,0,-0.35277776,10.733479,42.454831)"
       clip-path="url(#clipPath50)" />
  </g>
</svg>
